<svg width="25" height="24" viewBox="0 0 25 24" fill="none" xmlns="http://www.w3.org/2000/svg">
<path d="M7.55743 18.4934L8.31235 18.916C9.57355 19.622 11.0069 19.999 12.5026 19.999C17.105 19.999 20.836 16.4173 20.836 11.999C20.836 7.58074 17.105 3.99902 12.5026 3.99902C7.90023 3.99902 4.16927 7.58074 4.16927 11.999C4.16927 13.4353 4.56222 14.8118 5.2981 16.0228L5.73808 16.7468L5.05736 19.1484L7.55743 18.4934ZM2.09029 21.999L3.49858 17.0305C2.60048 15.5526 2.08594 13.8335 2.08594 11.999C2.08594 6.47617 6.74964 1.99902 12.5026 1.99902C18.2555 1.99902 22.9193 6.47617 22.9193 11.999C22.9193 17.5218 18.2555 21.999 12.5026 21.999C10.5923 21.999 8.80211 21.5054 7.2629 20.6437L2.09029 21.999ZM8.74358 7.30735C8.88304 7.29794 9.02297 7.2965 9.16261 7.30304C9.21903 7.3066 9.27518 7.31286 9.33136 7.31909C9.49726 7.33748 9.67969 7.43447 9.74102 7.56796C10.0518 8.24438 10.3533 8.92467 10.6455 9.60865C10.71 9.75964 10.6712 9.95535 10.5485 10.1447C10.4862 10.2418 10.3883 10.378 10.275 10.5173C10.1572 10.662 9.90366 10.9281 9.90366 10.9281C9.90366 10.9281 9.80094 11.0463 9.83966 11.1934C9.85474 11.249 9.90284 11.33 9.94646 11.3981C9.97061 11.4358 9.99304 11.4695 10.0076 11.4928C10.2742 11.9201 10.6325 12.3533 11.0702 12.7606C11.1956 12.8773 11.3173 12.9964 11.4481 13.107C11.936 13.5199 12.4878 13.8573 13.0839 14.1072L13.0892 14.1095C13.1772 14.1459 13.2224 14.1658 13.3513 14.2183C13.4163 14.2447 13.4827 14.2675 13.551 14.2848C13.5756 14.291 13.601 14.2945 13.6264 14.2962C13.7948 14.3059 13.8922 14.2022 13.9338 14.1545C14.6874 13.278 14.7564 13.2208 14.7616 13.2212V13.2228C14.8606 13.1226 15.0164 13.0878 15.1553 13.096C15.2188 13.0997 15.2819 13.1114 15.3396 13.1367C15.8936 13.3793 16.7993 13.7577 16.7993 13.7577L17.405 14.0191C17.5065 14.0661 17.5991 14.1768 17.6036 14.2844C17.6063 14.3513 17.6138 14.4593 17.5889 14.6569C17.5563 14.9156 17.4743 15.2271 17.3928 15.3903C17.3355 15.5048 17.2614 15.6064 17.1751 15.6924C17.0581 15.809 16.9713 15.8798 16.8306 15.9804C16.745 16.0416 16.7006 16.0704 16.7006 16.0704C16.556 16.158 16.4744 16.2018 16.302 16.2899C16.0339 16.427 15.7376 16.5058 15.4342 16.5208C15.2407 16.5303 15.0478 16.5437 14.8546 16.5337C14.8461 16.5332 14.2627 16.4472 14.2627 16.4472C12.7816 16.0732 11.4118 15.3726 10.2624 14.401C10.0273 14.2024 9.8094 13.9875 9.58694 13.7749C8.66083 12.8898 7.95973 11.9354 7.53459 11.0326C7.32495 10.5874 7.1922 10.1106 7.1901 9.62C7.18626 9.01307 7.39324 8.42222 7.77834 7.94088C7.85426 7.84599 7.92631 7.74757 8.05064 7.63488C8.18229 7.51553 8.26608 7.45146 8.35634 7.40713C8.47666 7.34804 8.6088 7.31644 8.74358 7.30735Z" fill="#233F3F"/>
</svg>
