<svg width="8" height="8" viewBox="0 0 8 8" fill="none" xmlns="http://www.w3.org/2000/svg">
<path d="M6.67689 3.17688L4.17689 5.67688C4.15367 5.70012 4.1261 5.71856 4.09575 5.73114C4.0654 5.74372 4.03287 5.7502 4.00001 5.7502C3.96716 5.7502 3.93463 5.74372 3.90428 5.73114C3.87393 5.71856 3.84636 5.70012 3.82314 5.67688L1.32314 3.17688C1.28814 3.14191 1.26429 3.09735 1.25463 3.04883C1.24497 3.00031 1.24992 2.95001 1.26886 2.9043C1.2878 2.8586 1.31987 2.81954 1.36102 2.79207C1.40217 2.7646 1.45054 2.74996 1.50001 2.75H6.50001C6.54949 2.74996 6.59786 2.7646 6.63901 2.79207C6.68016 2.81954 6.71223 2.8586 6.73117 2.9043C6.75011 2.95001 6.75506 3.00031 6.7454 3.04883C6.73573 3.09735 6.71189 3.14191 6.67689 3.17688Z" fill="white"/>
</svg>
