<svg width="8" height="8" viewBox="0 0 8 8" fill="none" xmlns="http://www.w3.org/2000/svg">
<path d="M6.67707 3.17688L4.17707 5.67688C4.15385 5.70012 4.12628 5.71856 4.09593 5.73114C4.06558 5.74372 4.03305 5.7502 4.0002 5.7502C3.96734 5.7502 3.93481 5.74372 3.90446 5.73114C3.87411 5.71856 3.84654 5.70012 3.82332 5.67688L1.32332 3.17688C1.28832 3.14191 1.26448 3.09735 1.25481 3.04883C1.24515 3.00031 1.2501 2.95001 1.26904 2.9043C1.28798 2.8586 1.32005 2.81954 1.3612 2.79207C1.40235 2.7646 1.45072 2.74996 1.5002 2.75H6.5002C6.54967 2.74996 6.59804 2.7646 6.63919 2.79207C6.68034 2.81954 6.71241 2.8586 6.73135 2.9043C6.75029 2.95001 6.75524 3.00031 6.74558 3.04883C6.73592 3.09735 6.71208 3.14191 6.67707 3.17688Z" fill="#233F3F"/>
</svg>
