<svg width="24" height="19" viewBox="0 0 24 19" fill="none" xmlns="http://www.w3.org/2000/svg">
<path d="M22.5 17.5002H21V10.7502L21.2194 10.9696C21.3604 11.1103 21.5515 11.1893 21.7507 11.1891C21.9499 11.189 22.1408 11.1097 22.2816 10.9687C22.4223 10.8277 22.5013 10.6366 22.5011 10.4374C22.5009 10.2382 22.4216 10.0472 22.2806 9.90649L13.0603 0.688992C12.779 0.4079 12.3977 0.25 12 0.25C11.6023 0.25 11.221 0.4079 10.9397 0.688992L1.71938 9.90649C1.57877 10.0472 1.49983 10.238 1.49991 10.437C1.5 10.6359 1.57911 10.8267 1.71984 10.9673C1.86057 11.1079 2.0514 11.1868 2.25033 11.1867C2.44927 11.1866 2.64002 11.1075 2.78062 10.9668L3 10.7502V17.5002H1.5C1.30109 17.5002 1.11032 17.5793 0.96967 17.7199C0.829018 17.8606 0.75 18.0513 0.75 18.2502C0.75 18.4492 0.829018 18.6399 0.96967 18.7806C1.11032 18.9212 1.30109 19.0002 1.5 19.0002H22.5C22.6989 19.0002 22.8897 18.9212 23.0303 18.7806C23.171 18.6399 23.25 18.4492 23.25 18.2502C23.25 18.0513 23.171 17.8606 23.0303 17.7199C22.8897 17.5793 22.6989 17.5002 22.5 17.5002ZM4.5 9.25024L12 1.75024L19.5 9.25024V17.5002H15V12.2502C15 12.0513 14.921 11.8606 14.7803 11.7199C14.6397 11.5793 14.4489 11.5002 14.25 11.5002H9.75C9.55109 11.5002 9.36032 11.5793 9.21967 11.7199C9.07902 11.8606 9 12.0513 9 12.2502V17.5002H4.5V9.25024ZM13.5 17.5002H10.5V13.0002H13.5V17.5002Z" fill="#FAFAFA"/>
</svg>
