<svg width="25" height="25" viewBox="0 0 25 25" fill="none" xmlns="http://www.w3.org/2000/svg">
<path d="M13.2776 8.24536L14.7154 9.68314C17.4946 12.4624 17.4946 16.9684 14.7154 19.7477L14.356 20.107C11.5767 22.8863 7.07069 22.8863 4.29145 20.107C1.51222 17.3279 1.51222 12.8218 4.29145 10.0426L5.72924 11.4804C3.74408 13.4656 3.74408 16.6841 5.72924 18.6693C7.71441 20.6544 10.933 20.6544 12.9182 18.6693L13.2776 18.3099C15.2627 16.3246 15.2627 13.1061 13.2776 11.1209L11.8398 9.68314L13.2776 8.24536ZM20.107 14.356L18.6693 12.9182C20.6544 10.933 20.6544 7.71441 18.6693 5.72924C16.6841 3.74408 13.4656 3.74408 11.4804 5.72924L11.1209 6.08869C9.13577 8.07385 9.13577 11.2924 11.1209 13.2776L12.5587 14.7154L11.1209 16.1531L9.68314 14.7154C6.90391 11.9362 6.90391 7.43014 9.68314 4.65091L10.0426 4.29145C12.8218 1.51222 17.3279 1.51222 20.107 4.29145C22.8863 7.07069 22.8863 11.5767 20.107 14.356Z" fill="#233F3F"/>
</svg>
