<svg width="22" height="22" viewBox="0 0 22 22" fill="none" xmlns="http://www.w3.org/2000/svg">
<path d="M15.7496 5.12476C15.7496 5.34726 15.6836 5.56477 15.56 5.74977C15.4364 5.93478 15.2607 6.07897 15.0551 6.16412C14.8495 6.24927 14.6233 6.27155 14.4051 6.22814C14.1869 6.18473 13.9864 6.07759 13.8291 5.92025C13.6718 5.76292 13.5646 5.56246 13.5212 5.34423C13.4778 5.12601 13.5001 4.89981 13.5852 4.69424C13.6704 4.48867 13.8146 4.31297 13.9996 4.18935C14.1846 4.06574 14.4021 3.99976 14.6246 3.99976C14.923 3.99976 15.2091 4.11828 15.4201 4.32926C15.6311 4.54024 15.7496 4.82639 15.7496 5.12476ZM19.6871 12.5385C18.2733 14.4923 16.1686 15.8085 13.434 16.4516C11.5515 16.8941 9.35209 17.0141 6.86021 16.8201C7.01021 17.9338 7.22021 19.1069 7.49021 20.3394C7.5326 20.5336 7.49618 20.7367 7.38895 20.904C7.28173 21.0714 7.11246 21.1893 6.91834 21.2319C6.86541 21.2438 6.81133 21.2498 6.75709 21.2498C6.58611 21.2496 6.42029 21.1911 6.28713 21.0839C6.15397 20.9766 6.06145 20.8271 6.0249 20.6601C5.71927 19.2626 5.48771 17.9307 5.33021 16.6644C4.06646 16.5076 2.73584 16.276 1.33834 15.9698C1.24212 15.9486 1.15101 15.9088 1.0702 15.8525C0.989389 15.7961 0.920465 15.7244 0.867361 15.6415C0.760114 15.4739 0.723819 15.2706 0.76646 15.0763C0.809102 14.882 0.927188 14.7126 1.09474 14.6053C1.26229 14.4981 1.46559 14.4618 1.6599 14.5044C2.89115 14.7744 4.06302 14.9848 5.17552 15.1354C4.97959 12.6454 5.1024 10.4479 5.54396 8.56726C6.18709 5.83257 7.50427 3.72788 9.45709 2.31226C10.7808 1.35226 13.1386 0.216008 16.8062 0.249758C18.7927 0.269445 20.634 0.655695 20.9133 0.819758C21.0228 0.884288 21.1141 0.975582 21.1786 1.08507C21.3427 1.36632 21.729 3.20288 21.7486 5.18945C21.7693 7.21632 21.428 10.1348 19.6871 12.5385ZM17.4596 12.801C15.4193 12.3962 13.545 11.3948 12.0743 9.92378C10.6037 8.45276 9.60272 6.5783 9.19834 4.53788C7.09084 6.81226 6.25271 10.4188 6.68959 15.306C11.5786 15.7448 15.1871 14.9076 17.4605 12.801H17.4596ZM19.9158 2.08351C18.7064 1.83643 17.473 1.72605 16.239 1.75445C13.9571 1.81445 12.0474 2.36288 10.5427 3.38476C10.7472 5.45591 11.6633 7.39216 13.1348 8.86389C14.6064 10.3356 16.5425 11.2519 18.6136 11.4566C19.6365 9.95663 20.1849 8.04226 20.2449 5.76038C20.2732 4.5263 20.1629 3.29294 19.9158 2.08351Z" fill="#FAFAFA"/>
</svg>
